<?xml version="1.0" standalone="no"?>
<!DOCTYPE svg PUBLIC "-//W3C//DTD SVG 20010904//EN"
 "http://www.w3.org/TR/2001/REC-SVG-20010904/DTD/svg10.dtd">
<svg version="1.0" xmlns="http://www.w3.org/2000/svg"
 width="512.000000pt" height="512.000000pt" viewBox="0 0 512.000000 512.000000"
 preserveAspectRatio="xMidYMid meet">
<metadata>
Created by potrace 1.11, written by Peter Selinger 2001-2013
</metadata>
<g transform="translate(0.000000,512.000000) scale(0.100000,-0.100000)"
fill="#000000" stroke="none">
<path d="M4219 4706 c-2 -3 -38 -7 -79 -11 -41 -4 -78 -8 -81 -10 -3 -2 -26
-6 -52 -9 -84 -11 -282 -56 -424 -97 -223 -65 -376 -125 -578 -226 -317 -159
-549 -328 -787 -570 l-97 -99 -113 13 c-62 7 -133 15 -158 17 -25 2 -45 5 -45
6 0 0 -22 3 -50 5 -254 21 -453 -49 -607 -213 -48 -51 -127 -168 -288 -427
-34 -55 -72 -116 -85 -135 -12 -19 -47 -73 -77 -120 -30 -47 -72 -113 -94
-147 -142 -227 -174 -279 -177 -287 -3 -11 5 -12 154 -21 68 -4 145 -8 170
-10 54 -5 188 -13 309 -20 47 -2 110 -7 140 -10 30 -2 107 -7 170 -11 63 -3
119 -9 124 -14 8 -8 12 -32 20 -110 10 -100 61 -237 128 -345 43 -69 181 -203
254 -246 113 -67 244 -110 378 -124 32 -3 62 -8 66 -10 4 -2 8 -28 9 -57 1
-29 4 -69 6 -88 4 -44 13 -162 29 -385 4 -49 9 -110 11 -135 11 -118 15 -172
20 -255 3 -50 8 -99 10 -110 2 -11 4 -34 4 -52 l1 -32 200 134 c110 74 204
135 209 135 5 0 11 3 13 8 4 10 156 112 167 112 5 0 11 4 13 8 2 5 104 76 228
158 314 208 392 289 458 480 28 80 35 124 35 224 0 60 -12 226 -18 250 -2 8
-7 49 -10 90 -3 41 -8 90 -9 108 -3 31 6 43 128 166 72 73 138 141 146 153 8
11 29 38 47 59 151 184 321 471 428 724 15 36 31 74 36 85 42 93 154 472 172
580 3 17 12 71 21 120 42 248 53 508 26 648 -13 70 -21 80 -76 93 -30 8 -418
16 -425 10z m-647 -811 c211 -55 358 -243 360 -459 1 -97 -12 -150 -59 -236
-60 -112 -176 -204 -297 -236 -60 -16 -173 -18 -235 -3 -133 30 -251 125 -315
253 -54 107 -66 204 -41 331 20 100 121 238 215 293 111 66 253 87 372 57z"/>
<path d="M1160 2045 c-12 -13 -27 -22 -33 -18 -6 3 -8 2 -4 -3 3 -5 -134 -149
-304 -319 -170 -170 -309 -312 -309 -315 0 -3 95 -5 211 -5 115 0 214 -2 219
-5 6 -4 -39 -152 -100 -335 -61 -180 -108 -330 -106 -333 4 -3 566 180 664
216 7 2 12 -4 12 -18 0 -14 -4 -19 -12 -14 -10 6 -10 5 -1 -7 8 -10 12 -75 12
-208 0 -107 2 -195 3 -196 2 -2 157 151 346 340 l344 343 -59 12 c-408 83
-721 378 -823 776 -15 58 -29 107 -32 109 -2 3 -15 -6 -28 -20z"/>
</g>
</svg>
